<?xml version="1.0" encoding="utf-8"?>
<!-- Generator: Adobe Illustrator 18.0.0, SVG Export Plug-In . SVG Version: 6.00 Build 0)  -->
<!DOCTYPE svg PUBLIC "-//W3C//DTD SVG 1.1//EN" "http://www.w3.org/Graphics/SVG/1.1/DTD/svg11.dtd">
<svg version="1.1" id="Layer_1" xmlns="http://www.w3.org/2000/svg" xmlns:xlink="http://www.w3.org/1999/xlink" x="0px" y="0px"
	 viewBox="0 0 34.9 30" enable-background="new 0 0 34.9 30" xml:space="preserve">
<g>
	<g id="Symbols_6_">
		<g id="Footer_6_" transform="translate(-1156.000000, -105.000000)">
			<path id="ion-social-googleplus---Ionicons_2_" fill="#636465" d="M1172.4,121.6c0.8,0.6,1.4,1.1,1.8,1.5
				c0.4,0.4,0.8,0.9,1.2,1.7c0.4,0.8,0.6,1.6,0.6,2.5c0,2.1-1,3.9-2.9,5.4c-1.9,1.5-4.6,2.3-8,2.3c-2.9,0-5.1-0.6-6.7-1.8
				c-1.6-1.2-2.3-2.6-2.3-4.2c0-2.1,1.1-3.8,3.3-5.1c1.6-1,3.8-1.6,6.6-1.8c-0.4-0.7-0.6-1.4-0.6-2c0-0.4,0-0.6,0.1-0.8h-0.3
				c-2.2,0-3.9-0.7-5.2-2c-1.2-1.2-1.9-2.7-1.9-4.4c0-2.2,0.9-4,2.7-5.5c1.9-1.5,4.4-2.3,7.3-2.3h10.4l-4.7,2.6h-1
				c1.2,1.4,1.8,2.9,1.8,4.5c0,1-0.2,1.9-0.6,2.7c-0.4,0.8-0.8,1.4-1.2,1.8c-0.4,0.4-0.9,0.8-1.7,1.3v0.1c-0.6,0.6-0.9,1-0.9,1.3
				c0,0.4,0.3,0.8,0.8,1.2L1172.4,121.6z M1162.6,111c0,1.4,0.4,2.7,1.1,4c0.8,1.4,1.9,2.1,3.2,2.1c0.9,0,1.6-0.3,2.2-0.9
				c0.5-0.5,0.8-1.3,0.8-2.3c0-1.4-0.4-2.7-1.2-4.1c-0.9-1.5-1.9-2.2-3.1-2.2c-1,0-1.7,0.3-2.3,1
				C1162.9,109.1,1162.6,109.9,1162.6,111z M1172.1,128.7c0-0.7-0.3-1.4-0.8-1.9c-0.5-0.6-1.6-1.4-3.1-2.4c-0.1,0-0.1,0-0.3,0
				c-0.1,0-0.2,0-0.4,0c-1.3,0-2.6,0.2-3.9,0.6c-2,0.7-3,1.8-3,3.3c0,1.2,0.6,2.2,1.7,2.9c1.1,0.7,2.7,1.1,4.5,1.1
				c1.6,0,2.9-0.3,3.8-0.9C1171.6,130.6,1172.1,129.8,1172.1,128.7z M1184.8,111.1h6.1v2.7h-6.1v6.3h-2.7v-6.3h-6.2v-2.7h6.2V105
				h2.7V111.1z"/>
		</g>
	</g>
</g>
</svg>
