<?xml version="1.0" encoding="utf-8"?>
<!-- Generator: Adobe Illustrator 18.0.0, SVG Export Plug-In . SVG Version: 6.00 Build 0)  -->
<!DOCTYPE svg PUBLIC "-//W3C//DTD SVG 1.1//EN" "http://www.w3.org/Graphics/SVG/1.1/DTD/svg11.dtd">
<svg version="1.1" id="Layer_1" xmlns="http://www.w3.org/2000/svg" xmlns:xlink="http://www.w3.org/1999/xlink" x="0px" y="0px"
	 viewBox="0 0 20.9 30" enable-background="new 0 0 20.9 30" xml:space="preserve">
<g>
	<g id="Symbols_1_">
		<g id="Footer_1_" transform="translate(0.000000, -62.000000)">
			<path id="location_on---material_1_" fill="#F61D22" d="M10.5,76.2c0.7,0,1.3-0.2,1.9-0.5c0.6-0.3,1-0.8,1.4-1.3s0.5-1.2,0.5-1.9
				s-0.2-1.3-0.5-1.9s-0.8-1-1.4-1.4c-0.6-0.3-1.2-0.5-1.9-0.5c-0.7,0-1.3,0.2-1.9,0.5c-0.6,0.3-1,0.8-1.3,1.4
				c-0.3,0.6-0.5,1.2-0.5,1.9c0,1,0.4,1.9,1.1,2.6C8.6,75.8,9.4,76.2,10.5,76.2z M10.5,62c1.9,0,3.7,0.5,5.3,1.4
				c1.6,0.9,2.8,2.2,3.8,3.8c0.9,1.6,1.4,3.4,1.4,5.3c0,1.5-0.4,3.1-1.1,5c-0.6,1.6-1.5,3.3-2.6,5.2c-0.9,1.5-2,3-3.1,4.6
				c-0.8,1.1-1.7,2.2-2.6,3.3l-1.1,1.3l-1.1-1.3c-0.9-1.1-1.8-2.2-2.6-3.3c-1.2-1.6-2.2-3.2-3.1-4.6c-1.1-1.9-2-3.6-2.6-5.2
				c-0.7-1.9-1.1-3.6-1.1-5c0-1.9,0.5-3.7,1.4-5.3c0.9-1.6,2.2-2.8,3.8-3.8C6.8,62.5,8.5,62,10.5,62z"/>
		</g>
	</g>
</g>
</svg>
