<?xml version="1.0" encoding="utf-8"?>
<!-- Generator: Adobe Illustrator 18.0.0, SVG Export Plug-In . SVG Version: 6.00 Build 0)  -->
<!DOCTYPE svg PUBLIC "-//W3C//DTD SVG 1.1//EN" "http://www.w3.org/Graphics/SVG/1.1/DTD/svg11.dtd">
<svg version="1.1" id="Layer_1" xmlns="http://www.w3.org/2000/svg" xmlns:xlink="http://www.w3.org/1999/xlink" x="0px" y="0px"
	 viewBox="0 0 36.8 30" enable-background="new 0 0 36.8 30" xml:space="preserve">
<g>
	<g id="Symbols_2_">
		<g id="Footer_2_" transform="translate(-1103.000000, -105.000000)">
			<path id="ion-social-twitter---Ionicons_1_" fill="#9B9B9B" d="M1139.8,108.6c-0.9,1.5-2.2,2.8-3.7,3.9v0.9
				c0,5.5-2,10.4-5.9,14.9s-9.1,6.7-15.6,6.7c-4.2,0-8-1.1-11.5-3.4c0.8,0.1,1.4,0.2,1.8,0.2c3.5,0,6.6-1.1,9.4-3.3
				c-1.6-0.1-3.1-0.6-4.4-1.5s-2.2-2.2-2.7-3.7c0.6,0.1,1.1,0.2,1.4,0.2c0.5,0,1.2-0.1,2-0.3c-1.7-0.4-3.2-1.2-4.3-2.6
				c-1.2-1.4-1.8-3-1.8-4.8v-0.1c1.1,0.6,2.3,0.9,3.4,0.9c-2.2-1.5-3.4-3.6-3.4-6.3c0-1.3,0.3-2.5,1-3.7c4,4.9,9.2,7.6,15.5,7.9
				c-0.1-0.4-0.2-0.9-0.2-1.7c0-2.1,0.7-3.9,2.2-5.4c1.5-1.5,3.2-2.2,5.4-2.2c2.1,0,4,0.8,5.5,2.4c1.6-0.3,3.2-0.9,4.8-1.9
				c-0.5,1.8-1.6,3.2-3.4,4.2C1137,109.6,1138.5,109.2,1139.8,108.6z"/>
		</g>
	</g>
</g>
</svg>
